# Rhino

mtllib KoridorSides.mtl
g Walls_Inner
usemtl diffuse_0
v -92 39.325942993164063 0
v -92 40.341552734375 0
v -91.627853393554688 39.325942993164063 -8.2666082382202148
v -91.627853393554688 40.341552734375 -8.2666082382202148
v -90.464096069335938 39.325942993164063 -16.7406005859375
v -90.464096069335938 40.341552734375 -16.7406005859375
v -88.448707580566406 39.325942993164063 -25.314556121826172
v -88.448707580566406 40.341552734375 -25.314556121826172
v -85.54052734375 39.325942993164063 -33.864711761474609
v -85.54052734375 40.341552734375 -33.864711761474609
v -81.722129821777344 39.325942993164063 -42.255104064941406
v -81.722129821777344 40.341552734375 -42.255104064941406
v -77.003585815429688 39.325942993164063 -50.343296051025391
v -77.003585815429688 40.341552734375 -50.343296051025391
v -71.424491882324219 39.325942993164063 -57.9874267578125
v -71.424491882324219 40.341552734375 -57.9874267578125
v -65.053825378417969 39.325942993164063 -65.053825378417969
v -65.053825378417969 40.341552734375 -65.053825378417969
v -57.9874267578125 39.325942993164063 -71.424491882324219
v -57.9874267578125 40.341552734375 -71.424491882324219
v -50.343296051025391 39.325942993164063 -77.003585815429688
v -50.343296051025391 40.341552734375 -77.003585815429688
v -42.255104064941406 39.325942993164063 -81.722129821777344
v -42.255104064941406 40.341552734375 -81.722129821777344
v -33.864711761474609 39.325942993164063 -85.54052734375
v -33.864711761474609 40.341552734375 -85.54052734375
v -25.314556121826172 39.325942993164063 -88.448707580566406
v -25.314556121826172 40.341552734375 -88.448707580566406
v -16.7406005859375 39.325942993164063 -90.464096069335938
v -16.7406005859375 40.341552734375 -90.464096069335938
v -8.2666082382202148 39.325942993164063 -91.627853393554688
v -8.2666082382202148 40.341552734375 -91.627853393554688
v 0 39.325942993164063 -92
v 0 40.341552734375 -92
v 8.2666082382202148 39.325942993164063 -91.627853393554688
v 8.2666082382202148 40.341552734375 -91.627853393554688
v 16.7406005859375 39.325942993164063 -90.464096069335938
v 16.7406005859375 40.341552734375 -90.464096069335938
v 25.314556121826172 39.325942993164063 -88.448707580566406
v 25.314556121826172 40.341552734375 -88.448707580566406
v 33.864711761474609 39.325942993164063 -85.54052734375
v 33.864711761474609 40.341552734375 -85.54052734375
v 42.255104064941406 39.325942993164063 -81.722129821777344
v 42.255104064941406 40.341552734375 -81.722129821777344
v 50.343296051025391 39.325942993164063 -77.003585815429688
v 50.343296051025391 40.341552734375 -77.003585815429688
v 57.9874267578125 39.325942993164063 -71.424491882324219
v 57.9874267578125 40.341552734375 -71.424491882324219
v 65.053825378417969 39.325942993164063 -65.053825378417969
v 65.053825378417969 40.341552734375 -65.053825378417969
v 71.424491882324219 39.325942993164063 -57.9874267578125
v 71.424491882324219 40.341552734375 -57.9874267578125
v 77.003585815429688 39.325942993164063 -50.343296051025391
v 77.003585815429688 40.341552734375 -50.343296051025391
v 81.722129821777344 39.325942993164063 -42.255104064941406
v 81.722129821777344 40.341552734375 -42.255104064941406
v 85.54052734375 39.325942993164063 -33.864711761474609
v 85.54052734375 40.341552734375 -33.864711761474609
v 88.448707580566406 39.325942993164063 -25.314556121826172
v 88.448707580566406 40.341552734375 -25.314556121826172
v 90.464096069335938 39.325942993164063 -16.7406005859375
v 90.464096069335938 40.341552734375 -16.7406005859375
v 91.627853393554688 39.325942993164063 -8.2666082382202148
v 91.627853393554688 40.341552734375 -8.2666082382202148
v 92 39.325942993164063 0
v 92 40.341552734375 0
v 91.627853393554688 39.325942993164063 8.2666082382202148
v 91.627853393554688 40.341552734375 8.2666082382202148
v 90.464096069335938 39.325942993164063 16.7406005859375
v 90.464096069335938 40.341552734375 16.7406005859375
v 88.448707580566406 39.325942993164063 25.314556121826172
v 88.448707580566406 40.341552734375 25.314556121826172
v 85.54052734375 39.325942993164063 33.864711761474609
v 85.54052734375 40.341552734375 33.864711761474609
v 81.722129821777344 39.325942993164063 42.255104064941406
v 81.722129821777344 40.341552734375 42.255104064941406
v 77.003585815429688 39.325942993164063 50.343296051025391
v 77.003585815429688 40.341552734375 50.343296051025391
v 71.424491882324219 39.325942993164063 57.9874267578125
v 71.424491882324219 40.341552734375 57.9874267578125
v 65.053825378417969 39.325942993164063 65.053825378417969
v 65.053825378417969 40.341552734375 65.053825378417969
v 57.9874267578125 39.325942993164063 71.424491882324219
v 57.9874267578125 40.341552734375 71.424491882324219
v 50.343296051025391 39.325942993164063 77.003585815429688
v 50.343296051025391 40.341552734375 77.003585815429688
v 42.255104064941406 39.325942993164063 81.722129821777344
v 42.255104064941406 40.341552734375 81.722129821777344
v 33.864711761474609 39.325942993164063 85.54052734375
v 33.864711761474609 40.341552734375 85.54052734375
v 25.314556121826172 39.325942993164063 88.448707580566406
v 25.314556121826172 40.341552734375 88.448707580566406
v 16.7406005859375 39.325942993164063 90.464096069335938
v 16.7406005859375 40.341552734375 90.464096069335938
v 8.2666082382202148 39.325942993164063 91.627853393554688
v 8.2666082382202148 40.341552734375 91.627853393554688
v 0 39.325942993164063 92
v 0 40.341552734375 92
v -8.2666082382202148 39.325942993164063 91.627853393554688
v -8.2666082382202148 40.341552734375 91.627853393554688
v -16.7406005859375 39.325942993164063 90.464096069335938
v -16.7406005859375 40.341552734375 90.464096069335938
v -25.314556121826172 39.325942993164063 88.448707580566406
v -25.314556121826172 40.341552734375 88.448707580566406
v -33.864711761474609 39.325942993164063 85.54052734375
v -33.864711761474609 40.341552734375 85.54052734375
v -42.255104064941406 39.325942993164063 81.722129821777344
v -42.255104064941406 40.341552734375 81.722129821777344
v -50.343296051025391 39.325942993164063 77.003585815429688
v -50.343296051025391 40.341552734375 77.003585815429688
v -57.9874267578125 39.325942993164063 71.424491882324219
v -57.9874267578125 40.341552734375 71.424491882324219
v -65.053825378417969 39.325942993164063 65.053825378417969
v -65.053825378417969 40.341552734375 65.053825378417969
v -71.424491882324219 39.325942993164063 57.9874267578125
v -71.424491882324219 40.341552734375 57.9874267578125
v -77.003585815429688 39.325942993164063 50.343296051025391
v -77.003585815429688 40.341552734375 50.343296051025391
v -81.722129821777344 39.325942993164063 42.255104064941406
v -81.722129821777344 40.341552734375 42.255104064941406
v -85.54052734375 39.325942993164063 33.864711761474609
v -85.54052734375 40.341552734375 33.864711761474609
v -88.448707580566406 39.325942993164063 25.314556121826172
v -88.448707580566406 40.341552734375 25.314556121826172
v -90.464096069335938 39.325942993164063 16.7406005859375
v -90.464096069335938 40.341552734375 16.7406005859375
v -91.627853393554688 39.325942993164063 8.2666082382202148
v -91.627853393554688 40.341552734375 8.2666082382202148
v -92 39.325942993164063 0
v -92 40.341552734375 0
vt 0 0
vt 0 1
vt 0.015625 0
vt 0.015625 1
vt 0.03125 0
vt 0.03125 1
vt 0.046875 0
vt 0.046875 1
vt 0.0625 0
vt 0.0625 1
vt 0.078125 0
vt 0.078125 1
vt 0.09375 0
vt 0.09375 1
vt 0.109375 0
vt 0.109375 1
vt 0.125 0
vt 0.125 1
vt 0.140625 0
vt 0.140625 1
vt 0.15625 0
vt 0.15625 1
vt 0.171875 0
vt 0.171875 1
vt 0.1875 0
vt 0.1875 1
vt 0.203125 0
vt 0.203125 1
vt 0.21875 0
vt 0.21875 1
vt 0.234375 0
vt 0.234375 1
vt 0.25 0
vt 0.25 1
vt 0.265625 0
vt 0.265625 1
vt 0.28125 0
vt 0.28125 1
vt 0.296875 0
vt 0.296875 1
vt 0.3125 0
vt 0.3125 1
vt 0.328125 0
vt 0.328125 1
vt 0.34375 0
vt 0.34375 1
vt 0.359375 0
vt 0.359375 1
vt 0.375 0
vt 0.375 1
vt 0.390625 0
vt 0.390625 1
vt 0.40625 0
vt 0.40625 1
vt 0.421875 0
vt 0.421875 1
vt 0.4375 0
vt 0.4375 1
vt 0.453125 0
vt 0.453125 1
vt 0.46875 0
vt 0.46875 1
vt 0.484375 0
vt 0.484375 1
vt 0.5 0
vt 0.5 1
vt 0.515625 0
vt 0.515625 1
vt 0.53125 0
vt 0.53125 1
vt 0.546875 0
vt 0.546875 1
vt 0.5625 0
vt 0.5625 1
vt 0.578125 0
vt 0.578125 1
vt 0.59375 0
vt 0.59375 1
vt 0.609375 0
vt 0.609375 1
vt 0.625 0
vt 0.625 1
vt 0.640625 0
vt 0.640625 1
vt 0.65625 0
vt 0.65625 1
vt 0.671875 0
vt 0.671875 1
vt 0.6875 0
vt 0.6875 1
vt 0.703125 0
vt 0.703125 1
vt 0.71875 0
vt 0.71875 1
vt 0.734375 0
vt 0.734375 1
vt 0.75 0
vt 0.75 1
vt 0.765625 0
vt 0.765625 1
vt 0.78125 0
vt 0.78125 1
vt 0.796875 0
vt 0.796875 1
vt 0.8125 0
vt 0.8125 1
vt 0.828125 0
vt 0.828125 1
vt 0.84375 0
vt 0.84375 1
vt 0.859375 0
vt 0.859375 1
vt 0.875 0
vt 0.875 1
vt 0.890625 0
vt 0.890625 1
vt 0.90625 0
vt 0.90625 1
vt 0.921875 0
vt 0.921875 1
vt 0.9375 0
vt 0.9375 1
vt 0.953125 0
vt 0.953125 1
vt 0.96875 0
vt 0.96875 1
vt 0.984375 0
vt 0.984375 1
vt 1 0
vt 1 1
vn 1 0 0
vn 1 0 0
vn 0.99595493078231812 0 0.089854441583156586
vn 0.99595493078231812 0 0.089854441583156586
vn 0.98330539464950562 0 0.18196305632591248
vn 0.98330539464950562 0 0.18196305632591248
vn 0.96139895915985107 0 0.27515822649002075
vn 0.96139895915985107 0 0.27515822649002075
vn 0.92978829145431519 0 0.36809471249580383
vn 0.92978829145431519 0 0.36809471249580383
vn 0.88828402757644653 0 0.45929458737373352
vn 0.88828402757644653 0 0.45929458737373352
vn 0.83699548244476318 0 0.54720973968505859
vn 0.83699548244476318 0 0.54720973968505859
vn 0.77635318040847778 0 0.63029813766479492
vn 0.77635318040847778 0 0.63029813766479492
vn 0.70710676908493042 0 0.70710676908493042
vn 0.70710676908493042 0 0.70710676908493042
vn 0.63029813766479492 0 0.77635318040847778
vn 0.63029813766479492 0 0.77635318040847778
vn 0.54720973968505859 0 0.83699548244476318
vn 0.54720973968505859 0 0.83699548244476318
vn 0.45929458737373352 0 0.88828402757644653
vn 0.45929458737373352 0 0.88828402757644653
vn 0.36809471249580383 0 0.92978829145431519
vn 0.36809471249580383 0 0.92978829145431519
vn 0.27515822649002075 0 0.96139895915985107
vn 0.27515822649002075 0 0.96139895915985107
vn 0.18196305632591248 0 0.98330539464950562
vn 0.18196305632591248 0 0.98330539464950562
vn 0.089854441583156586 0 0.99595493078231812
vn 0.089854441583156586 0 0.99595493078231812
vn 0 0 1
vn 0 0 1
vn -0.089854441583156586 0 0.99595493078231812
vn -0.089854441583156586 0 0.99595493078231812
vn -0.18196305632591248 0 0.98330539464950562
vn -0.18196305632591248 0 0.98330539464950562
vn -0.27515822649002075 0 0.96139895915985107
vn -0.27515822649002075 0 0.96139895915985107
vn -0.36809471249580383 0 0.92978829145431519
vn -0.36809471249580383 0 0.92978829145431519
vn -0.45929458737373352 0 0.88828402757644653
vn -0.45929458737373352 0 0.88828402757644653
vn -0.54720973968505859 0 0.83699548244476318
vn -0.54720973968505859 0 0.83699548244476318
vn -0.63029813766479492 0 0.77635318040847778
vn -0.63029813766479492 0 0.77635318040847778
vn -0.70710676908493042 0 0.70710676908493042
vn -0.70710676908493042 0 0.70710676908493042
vn -0.77635318040847778 0 0.63029813766479492
vn -0.77635318040847778 0 0.63029813766479492
vn -0.83699548244476318 0 0.54720973968505859
vn -0.83699548244476318 0 0.54720973968505859
vn -0.88828402757644653 0 0.45929458737373352
vn -0.88828402757644653 0 0.45929458737373352
vn -0.92978829145431519 0 0.36809471249580383
vn -0.92978829145431519 0 0.36809471249580383
vn -0.96139895915985107 0 0.27515822649002075
vn -0.96139895915985107 0 0.27515822649002075
vn -0.98330539464950562 0 0.18196305632591248
vn -0.98330539464950562 0 0.18196305632591248
vn -0.99595493078231812 0 0.089854441583156586
vn -0.99595493078231812 0 0.089854441583156586
vn -1 0 0
vn -1 0 0
vn -0.99595493078231812 0 -0.089854441583156586
vn -0.99595493078231812 0 -0.089854441583156586
vn -0.98330539464950562 0 -0.18196305632591248
vn -0.98330539464950562 0 -0.18196305632591248
vn -0.96139895915985107 0 -0.27515822649002075
vn -0.96139895915985107 0 -0.27515822649002075
vn -0.92978829145431519 0 -0.36809471249580383
vn -0.92978829145431519 0 -0.36809471249580383
vn -0.88828402757644653 0 -0.45929458737373352
vn -0.88828402757644653 0 -0.45929458737373352
vn -0.83699548244476318 0 -0.54720973968505859
vn -0.83699548244476318 0 -0.54720973968505859
vn -0.77635318040847778 0 -0.63029813766479492
vn -0.77635318040847778 0 -0.63029813766479492
vn -0.70710676908493042 0 -0.70710676908493042
vn -0.70710676908493042 0 -0.70710676908493042
vn -0.63029813766479492 0 -0.77635318040847778
vn -0.63029813766479492 0 -0.77635318040847778
vn -0.54720973968505859 0 -0.83699548244476318
vn -0.54720973968505859 0 -0.83699548244476318
vn -0.45929458737373352 0 -0.88828402757644653
vn -0.45929458737373352 0 -0.88828402757644653
vn -0.36809471249580383 0 -0.92978829145431519
vn -0.36809471249580383 0 -0.92978829145431519
vn -0.27515822649002075 0 -0.96139895915985107
vn -0.27515822649002075 0 -0.96139895915985107
vn -0.18196305632591248 0 -0.98330539464950562
vn -0.18196305632591248 0 -0.98330539464950562
vn -0.089854441583156586 0 -0.99595493078231812
vn -0.089854441583156586 0 -0.99595493078231812
vn 0 0 -1
vn 0 0 -1
vn 0.089854441583156586 0 -0.99595493078231812
vn 0.089854441583156586 0 -0.99595493078231812
vn 0.18196305632591248 0 -0.98330539464950562
vn 0.18196305632591248 0 -0.98330539464950562
vn 0.27515822649002075 0 -0.96139895915985107
vn 0.27515822649002075 0 -0.96139895915985107
vn 0.36809471249580383 0 -0.92978829145431519
vn 0.36809471249580383 0 -0.92978829145431519
vn 0.45929458737373352 0 -0.88828402757644653
vn 0.45929458737373352 0 -0.88828402757644653
vn 0.54720973968505859 0 -0.83699548244476318
vn 0.54720973968505859 0 -0.83699548244476318
vn 0.63029813766479492 0 -0.77635318040847778
vn 0.63029813766479492 0 -0.77635318040847778
vn 0.70710676908493042 0 -0.70710676908493042
vn 0.70710676908493042 0 -0.70710676908493042
vn 0.77635318040847778 0 -0.63029813766479492
vn 0.77635318040847778 0 -0.63029813766479492
vn 0.83699548244476318 0 -0.54720973968505859
vn 0.83699548244476318 0 -0.54720973968505859
vn 0.88828402757644653 0 -0.45929458737373352
vn 0.88828402757644653 0 -0.45929458737373352
vn 0.92978829145431519 0 -0.36809471249580383
vn 0.92978829145431519 0 -0.36809471249580383
vn 0.96139895915985107 0 -0.27515822649002075
vn 0.96139895915985107 0 -0.27515822649002075
vn 0.98330539464950562 0 -0.18196305632591248
vn 0.98330539464950562 0 -0.18196305632591248
vn 0.99595493078231812 0 -0.089854441583156586
vn 0.99595493078231812 0 -0.089854441583156586
vn 1 0 0
vn 1 0 0
f 4/4/4 2/2/2 1/1/1 3/3/3
f 6/6/6 4/4/4 3/3/3 5/5/5
f 8/8/8 6/6/6 5/5/5 7/7/7
f 10/10/10 8/8/8 7/7/7 9/9/9
f 12/12/12 10/10/10 9/9/9 11/11/11
f 14/14/14 12/12/12 11/11/11 13/13/13
f 16/16/16 14/14/14 13/13/13 15/15/15
f 18/18/18 16/16/16 15/15/15 17/17/17
f 20/20/20 18/18/18 17/17/17 19/19/19
f 22/22/22 20/20/20 19/19/19 21/21/21
f 24/24/24 22/22/22 21/21/21 23/23/23
f 26/26/26 24/24/24 23/23/23 25/25/25
f 28/28/28 26/26/26 25/25/25 27/27/27
f 30/30/30 28/28/28 27/27/27 29/29/29
f 32/32/32 30/30/30 29/29/29 31/31/31
f 34/34/34 32/32/32 31/31/31 33/33/33
f 36/36/36 34/34/34 33/33/33 35/35/35
f 38/38/38 36/36/36 35/35/35 37/37/37
f 40/40/40 38/38/38 37/37/37 39/39/39
f 42/42/42 40/40/40 39/39/39 41/41/41
f 44/44/44 42/42/42 41/41/41 43/43/43
f 46/46/46 44/44/44 43/43/43 45/45/45
f 48/48/48 46/46/46 45/45/45 47/47/47
f 50/50/50 48/48/48 47/47/47 49/49/49
f 52/52/52 50/50/50 49/49/49 51/51/51
f 54/54/54 52/52/52 51/51/51 53/53/53
f 56/56/56 54/54/54 53/53/53 55/55/55
f 58/58/58 56/56/56 55/55/55 57/57/57
f 60/60/60 58/58/58 57/57/57 59/59/59
f 62/62/62 60/60/60 59/59/59 61/61/61
f 64/64/64 62/62/62 61/61/61 63/63/63
f 66/66/66 64/64/64 63/63/63 65/65/65
f 68/68/68 66/66/66 65/65/65 67/67/67
f 70/70/70 68/68/68 67/67/67 69/69/69
f 72/72/72 70/70/70 69/69/69 71/71/71
f 74/74/74 72/72/72 71/71/71 73/73/73
f 76/76/76 74/74/74 73/73/73 75/75/75
f 78/78/78 76/76/76 75/75/75 77/77/77
f 80/80/80 78/78/78 77/77/77 79/79/79
f 82/82/82 80/80/80 79/79/79 81/81/81
f 84/84/84 82/82/82 81/81/81 83/83/83
f 86/86/86 84/84/84 83/83/83 85/85/85
f 88/88/88 86/86/86 85/85/85 87/87/87
f 90/90/90 88/88/88 87/87/87 89/89/89
f 92/92/92 90/90/90 89/89/89 91/91/91
f 94/94/94 92/92/92 91/91/91 93/93/93
f 96/96/96 94/94/94 93/93/93 95/95/95
f 98/98/98 96/96/96 95/95/95 97/97/97
f 100/100/100 98/98/98 97/97/97 99/99/99
f 102/102/102 100/100/100 99/99/99 101/101/101
f 104/104/104 102/102/102 101/101/101 103/103/103
f 106/106/106 104/104/104 103/103/103 105/105/105
f 108/108/108 106/106/106 105/105/105 107/107/107
f 110/110/110 108/108/108 107/107/107 109/109/109
f 112/112/112 110/110/110 109/109/109 111/111/111
f 114/114/114 112/112/112 111/111/111 113/113/113
f 116/116/116 114/114/114 113/113/113 115/115/115
f 118/118/118 116/116/116 115/115/115 117/117/117
f 120/120/120 118/118/118 117/117/117 119/119/119
f 122/122/122 120/120/120 119/119/119 121/121/121
f 124/124/124 122/122/122 121/121/121 123/123/123
f 126/126/126 124/124/124 123/123/123 125/125/125
f 128/128/128 126/126/126 125/125/125 127/127/127
f 130/130/130 128/128/128 127/127/127 129/129/129
